<svg version="1.1" xmlns="http://www.w3.org/2000/svg" xmlns:xlink="http://www.w3.org/1999/xlink" width="277" height="282"><defs><clipPath id="LsvHkXooyPau"><path fill="none" stroke="none" d=" M 0 0 L 277 0 L 277 282 L 0 282 L 0 0 Z"/></clipPath></defs><g transform="scale(1,1)" clip-path="url(#LsvHkXooyPau)"><g><rect fill="rgb(255,255,255)" stroke="none" x="0" y="0" width="277" height="282" fill-opacity="0"/><path fill="none" stroke="rgb(0,0,0)" paint-order="fill stroke markers" d=" M 266.35574386704275 142.0873572734147 C 266.35574386704275 212.92091456652912 208.93380014403067 270.34285828954114 138.1002428509161 270.34285828954114 C 67.26668555780151 270.34285828954114 9.844741834789403 212.92091456652912 9.844741834789403 142.0873572734147 C 9.844741834789403 71.25379998030027 67.26668555780151 13.831856257288308 138.1002428509161 13.831856257288308 C 208.93380014403067 13.831856257288308 266.35574386704275 71.25379998030027 266.35574386704275 142.0873572734147 Z" stroke-opacity="1" stroke-linecap="round" stroke-linejoin="round" stroke-miterlimit="10" stroke-width="6.5"/><path fill="rgb(0,255,0)" stroke="none" paint-order="stroke fill markers" d=" M 206.26759790971917 153.04650615600252 C 206.26759790971917 162.16074873895346 198.87904445178117 169.54930219689143 189.7648018688302 169.54930219689143 C 180.65055928587927 169.54930219689143 173.26200582794127 162.16074873895346 173.26200582794127 153.04650615600252 C 173.26200582794127 143.93226357305159 180.65055928587927 136.5437101151136 189.7648018688302 136.5437101151136 C 198.87904445178117 136.5437101151136 206.26759790971917 143.93226357305159 206.26759790971917 153.04650615600252 Z" fill-opacity="0.34901960784313724"/><path fill="none" stroke="rgb(0,255,0)" paint-order="fill stroke markers" d=" M 206.26759790971917 153.04650615600252 C 206.26759790971917 162.16074873895346 198.87904445178117 169.54930219689143 189.7648018688302 169.54930219689143 C 180.65055928587927 169.54930219689143 173.26200582794127 162.16074873895346 173.26200582794127 153.04650615600252 C 173.26200582794127 143.93226357305159 180.65055928587927 136.5437101151136 189.7648018688302 136.5437101151136 C 198.87904445178117 136.5437101151136 206.26759790971917 143.93226357305159 206.26759790971917 153.04650615600252 Z" stroke-opacity="1" stroke-linecap="round" stroke-linejoin="round" stroke-miterlimit="10" stroke-width="2.5"/><path fill="rgb(0,0,255)" stroke="none" paint-order="stroke fill markers" d=" M 133.20660535913353 192.18632359381616 C 133.20660535913353 201.30056617676712 125.81805190119555 208.6891196347051 116.70380931824458 208.6891196347051 C 107.58956673529362 208.6891196347051 100.20101327735563 201.30056617676712 100.20101327735563 192.18632359381616 C 100.20101327735563 183.07208101086522 107.58956673529362 175.68352755292725 116.70380931824458 175.68352755292725 C 125.81805190119555 175.68352755292725 133.20660535913353 183.07208101086522 133.20660535913353 192.18632359381616 Z" fill-opacity="0.34901960784313724"/><path fill="none" stroke="rgb(0,0,255)" paint-order="fill stroke markers" d=" M 133.20660535913353 192.18632359381616 C 133.20660535913353 201.30056617676712 125.81805190119555 208.6891196347051 116.70380931824458 208.6891196347051 C 107.58956673529362 208.6891196347051 100.20101327735563 201.30056617676712 100.20101327735563 192.18632359381616 C 100.20101327735563 183.07208101086522 107.58956673529362 175.68352755292725 116.70380931824458 175.68352755292725 C 125.81805190119555 175.68352755292725 133.20660535913353 183.07208101086522 133.20660535913353 192.18632359381616 Z" stroke-opacity="1" stroke-linecap="round" stroke-linejoin="round" stroke-miterlimit="10" stroke-width="2.5"/><path fill="none" stroke="rgb(255,0,0)" paint-order="fill stroke markers" d=" M 49.459548913729634 230.61693260683364 C 63.7654903002896 257.3246648982826 122.77217161155512 253.58079992953535 181.25466040248259 222.25477615285462 C 239.73714919341006 190.92875237617386 275.549316700874 143.88309771295553 261.24337531431405 117.17536542150657 C 246.93743392775409 90.46763313005758 187.93075261648858 94.21149809880485 129.4482638255611 125.53752187548561 C 70.96577503463367 156.86354565216635 35.15360752716967 203.90920031538468 49.459548913729634 230.61693260683364 Z" stroke-opacity="1" stroke-linecap="round" stroke-linejoin="round" stroke-miterlimit="10" stroke-width="6.5"/></g></g></svg>